<mxfile host="app.diagrams.net" modified="2021-06-21T12:53:22.437Z" agent="5.0 (Windows NT 10.0; Win64; x64) AppleWebKit/537.36 (KHTML, like Gecko) Chrome/91.0.4472.106 Safari/537.36" etag="rBrKu1DcBtBJqzgo94Je" version="14.8.0" type="github">
  <diagram id="ERvYv8DdHMbPDZ35Vy06" name="Page-1">
    <mxGraphModel dx="846" dy="551" grid="1" gridSize="10" guides="1" tooltips="1" connect="1" arrows="1" fold="1" page="1" pageScale="1" pageWidth="850" pageHeight="1100" background="#114B5F" math="0" shadow="0">
      <root>
        <mxCell id="0" />
        <mxCell id="1" parent="0" />
        <mxCell id="0O2sNTZ3Sp0WWgC0A8mW-1" value="" style="ellipse;html=1;shape=startState;fillColor=#F45B69;strokeColor=#028090;fontColor=#E4FDE1;rounded=1;" vertex="1" parent="1">
          <mxGeometry x="315" width="30" height="30" as="geometry" />
        </mxCell>
        <mxCell id="0O2sNTZ3Sp0WWgC0A8mW-2" value="" style="edgeStyle=orthogonalEdgeStyle;html=1;verticalAlign=bottom;endArrow=open;endSize=8;strokeColor=#028090;entryX=0.5;entryY=0;entryDx=0;entryDy=0;labelBackgroundColor=#114B5F;fontColor=#E4FDE1;curved=1;" edge="1" source="0O2sNTZ3Sp0WWgC0A8mW-1" parent="1" target="0O2sNTZ3Sp0WWgC0A8mW-29">
          <mxGeometry relative="1" as="geometry">
            <mxPoint x="355" y="110" as="targetPoint" />
          </mxGeometry>
        </mxCell>
        <mxCell id="0O2sNTZ3Sp0WWgC0A8mW-3" value="Envoie du formulaire&lt;br&gt;d&#39;inscription" style="whiteSpace=wrap;html=1;arcSize=40;fontColor=#E4FDE1;fillColor=#F45B69;strokeColor=#028090;rounded=1;" vertex="1" parent="1">
          <mxGeometry x="295" y="130" width="120" height="40" as="geometry" />
        </mxCell>
        <mxCell id="0O2sNTZ3Sp0WWgC0A8mW-4" value="" style="edgeStyle=orthogonalEdgeStyle;html=1;verticalAlign=bottom;endArrow=open;endSize=8;strokeColor=#028090;labelBackgroundColor=#114B5F;fontColor=#E4FDE1;curved=1;" edge="1" source="0O2sNTZ3Sp0WWgC0A8mW-3" parent="1">
          <mxGeometry relative="1" as="geometry">
            <mxPoint x="355" y="210" as="targetPoint" />
          </mxGeometry>
        </mxCell>
        <mxCell id="0O2sNTZ3Sp0WWgC0A8mW-5" value="Contrôle du formulaire" style="whiteSpace=wrap;html=1;arcSize=40;fontColor=#E4FDE1;fillColor=#F45B69;strokeColor=#028090;rounded=1;" vertex="1" parent="1">
          <mxGeometry x="290" y="210" width="120" height="40" as="geometry" />
        </mxCell>
        <mxCell id="0O2sNTZ3Sp0WWgC0A8mW-6" value="" style="edgeStyle=orthogonalEdgeStyle;html=1;verticalAlign=bottom;endArrow=open;endSize=8;strokeColor=#028090;entryX=0.5;entryY=0;entryDx=0;entryDy=0;labelBackgroundColor=#114B5F;fontColor=#E4FDE1;curved=1;" edge="1" source="0O2sNTZ3Sp0WWgC0A8mW-5" parent="1" target="0O2sNTZ3Sp0WWgC0A8mW-7">
          <mxGeometry relative="1" as="geometry">
            <mxPoint x="355" y="310" as="targetPoint" />
          </mxGeometry>
        </mxCell>
        <mxCell id="0O2sNTZ3Sp0WWgC0A8mW-7" value="valide?" style="rhombus;whiteSpace=wrap;html=1;fillColor=#F45B69;strokeColor=#028090;fontColor=#E4FDE1;rounded=1;" vertex="1" parent="1">
          <mxGeometry x="310" y="310" width="80" height="40" as="geometry" />
        </mxCell>
        <mxCell id="0O2sNTZ3Sp0WWgC0A8mW-8" value="no" style="edgeStyle=orthogonalEdgeStyle;html=1;align=left;verticalAlign=bottom;endArrow=open;endSize=8;strokeColor=#028090;labelBackgroundColor=#114B5F;fontColor=#E4FDE1;curved=1;" edge="1" source="0O2sNTZ3Sp0WWgC0A8mW-7" parent="1">
          <mxGeometry x="-1" relative="1" as="geometry">
            <mxPoint x="490" y="330" as="targetPoint" />
          </mxGeometry>
        </mxCell>
        <mxCell id="0O2sNTZ3Sp0WWgC0A8mW-9" value="yes" style="edgeStyle=orthogonalEdgeStyle;html=1;align=left;verticalAlign=top;endArrow=open;endSize=8;strokeColor=#028090;entryX=0.5;entryY=0;entryDx=0;entryDy=0;labelBackgroundColor=#114B5F;fontColor=#E4FDE1;curved=1;" edge="1" source="0O2sNTZ3Sp0WWgC0A8mW-7" parent="1" target="0O2sNTZ3Sp0WWgC0A8mW-12">
          <mxGeometry x="-1" relative="1" as="geometry">
            <mxPoint x="350" y="410" as="targetPoint" />
          </mxGeometry>
        </mxCell>
        <mxCell id="0O2sNTZ3Sp0WWgC0A8mW-10" value="Affiche Erreur" style="whiteSpace=wrap;html=1;arcSize=40;fontColor=#E4FDE1;fillColor=#F45B69;strokeColor=#028090;rounded=1;" vertex="1" parent="1">
          <mxGeometry x="490" y="310" width="120" height="40" as="geometry" />
        </mxCell>
        <mxCell id="0O2sNTZ3Sp0WWgC0A8mW-11" value="" style="edgeStyle=orthogonalEdgeStyle;html=1;verticalAlign=bottom;endArrow=open;endSize=8;strokeColor=#028090;entryX=1;entryY=0.5;entryDx=0;entryDy=0;labelBackgroundColor=#114B5F;fontColor=#E4FDE1;curved=1;" edge="1" source="0O2sNTZ3Sp0WWgC0A8mW-10" parent="1" target="0O2sNTZ3Sp0WWgC0A8mW-5">
          <mxGeometry relative="1" as="geometry">
            <mxPoint x="550" y="410" as="targetPoint" />
            <Array as="points">
              <mxPoint x="550" y="230" />
            </Array>
          </mxGeometry>
        </mxCell>
        <mxCell id="0O2sNTZ3Sp0WWgC0A8mW-12" value="Enregistrement" style="whiteSpace=wrap;html=1;arcSize=40;fontColor=#E4FDE1;fillColor=#F45B69;strokeColor=#028090;rounded=1;" vertex="1" parent="1">
          <mxGeometry x="290" y="380" width="120" height="40" as="geometry" />
        </mxCell>
        <mxCell id="0O2sNTZ3Sp0WWgC0A8mW-13" value="" style="edgeStyle=orthogonalEdgeStyle;html=1;verticalAlign=bottom;endArrow=open;endSize=8;strokeColor=#028090;labelBackgroundColor=#114B5F;fontColor=#E4FDE1;curved=1;" edge="1" source="0O2sNTZ3Sp0WWgC0A8mW-12" parent="1">
          <mxGeometry relative="1" as="geometry">
            <mxPoint x="350" y="460" as="targetPoint" />
          </mxGeometry>
        </mxCell>
        <mxCell id="0O2sNTZ3Sp0WWgC0A8mW-19" value="Demande du mdp, userName" style="whiteSpace=wrap;html=1;arcSize=40;fontColor=#E4FDE1;fillColor=#F45B69;strokeColor=#028090;rounded=1;" vertex="1" parent="1">
          <mxGeometry x="290" y="550" width="120" height="40" as="geometry" />
        </mxCell>
        <mxCell id="0O2sNTZ3Sp0WWgC0A8mW-20" value="" style="edgeStyle=orthogonalEdgeStyle;html=1;verticalAlign=bottom;endArrow=open;endSize=8;strokeColor=#028090;entryX=0.5;entryY=0;entryDx=0;entryDy=0;labelBackgroundColor=#114B5F;fontColor=#E4FDE1;curved=1;" edge="1" source="0O2sNTZ3Sp0WWgC0A8mW-19" parent="1" target="0O2sNTZ3Sp0WWgC0A8mW-21">
          <mxGeometry relative="1" as="geometry">
            <mxPoint x="350" y="610" as="targetPoint" />
          </mxGeometry>
        </mxCell>
        <mxCell id="0O2sNTZ3Sp0WWgC0A8mW-21" value="Connexion réussi" style="rhombus;whiteSpace=wrap;html=1;fillColor=#F45B69;strokeColor=#028090;fontColor=#E4FDE1;rounded=1;" vertex="1" parent="1">
          <mxGeometry x="305" y="640" width="90" height="50" as="geometry" />
        </mxCell>
        <mxCell id="0O2sNTZ3Sp0WWgC0A8mW-22" value="no" style="edgeStyle=orthogonalEdgeStyle;html=1;align=left;verticalAlign=bottom;endArrow=open;endSize=8;strokeColor=#028090;entryX=1;entryY=0.5;entryDx=0;entryDy=0;exitX=1;exitY=0.5;exitDx=0;exitDy=0;labelBackgroundColor=#114B5F;fontColor=#E4FDE1;curved=1;" edge="1" source="0O2sNTZ3Sp0WWgC0A8mW-21" parent="1" target="0O2sNTZ3Sp0WWgC0A8mW-19">
          <mxGeometry x="-1" relative="1" as="geometry">
            <mxPoint x="490" y="630" as="targetPoint" />
            <Array as="points">
              <mxPoint x="470" y="665" />
              <mxPoint x="470" y="570" />
            </Array>
          </mxGeometry>
        </mxCell>
        <mxCell id="0O2sNTZ3Sp0WWgC0A8mW-23" value="yes" style="edgeStyle=orthogonalEdgeStyle;html=1;align=left;verticalAlign=top;endArrow=open;endSize=8;strokeColor=#028090;entryX=0.5;entryY=0;entryDx=0;entryDy=0;labelBackgroundColor=#114B5F;fontColor=#E4FDE1;curved=1;" edge="1" source="0O2sNTZ3Sp0WWgC0A8mW-21" parent="1" target="0O2sNTZ3Sp0WWgC0A8mW-24">
          <mxGeometry x="-1" relative="1" as="geometry">
            <mxPoint x="350" y="710" as="targetPoint" />
          </mxGeometry>
        </mxCell>
        <mxCell id="0O2sNTZ3Sp0WWgC0A8mW-24" value="Remplissage" style="whiteSpace=wrap;html=1;arcSize=40;fontColor=#E4FDE1;fillColor=#F45B69;strokeColor=#028090;rounded=1;" vertex="1" parent="1">
          <mxGeometry x="290" y="760" width="120" height="40" as="geometry" />
        </mxCell>
        <mxCell id="0O2sNTZ3Sp0WWgC0A8mW-25" value="" style="edgeStyle=orthogonalEdgeStyle;html=1;verticalAlign=bottom;endArrow=open;endSize=8;strokeColor=#028090;labelBackgroundColor=#114B5F;fontColor=#E4FDE1;curved=1;" edge="1" source="0O2sNTZ3Sp0WWgC0A8mW-24" parent="1">
          <mxGeometry relative="1" as="geometry">
            <mxPoint x="350" y="850" as="targetPoint" />
          </mxGeometry>
        </mxCell>
        <mxCell id="0O2sNTZ3Sp0WWgC0A8mW-29" value="Inscrit?" style="rhombus;whiteSpace=wrap;html=1;fillColor=#F45B69;strokeColor=#028090;fontColor=#E4FDE1;rounded=1;" vertex="1" parent="1">
          <mxGeometry x="290" y="50" width="80" height="40" as="geometry" />
        </mxCell>
        <mxCell id="0O2sNTZ3Sp0WWgC0A8mW-30" value="no" style="edgeStyle=orthogonalEdgeStyle;html=1;align=left;verticalAlign=bottom;endArrow=open;endSize=8;strokeColor=#028090;labelBackgroundColor=#114B5F;fontColor=#E4FDE1;curved=1;" edge="1" source="0O2sNTZ3Sp0WWgC0A8mW-29" parent="1">
          <mxGeometry x="-0.5" y="-30" relative="1" as="geometry">
            <mxPoint x="330" y="130" as="targetPoint" />
            <mxPoint as="offset" />
          </mxGeometry>
        </mxCell>
        <mxCell id="0O2sNTZ3Sp0WWgC0A8mW-31" value="yes" style="edgeStyle=orthogonalEdgeStyle;html=1;align=left;verticalAlign=top;endArrow=open;endSize=8;strokeColor=#028090;entryX=1;entryY=0.5;entryDx=0;entryDy=0;labelBackgroundColor=#114B5F;fontColor=#E4FDE1;curved=1;" edge="1" source="0O2sNTZ3Sp0WWgC0A8mW-29" parent="1" target="0O2sNTZ3Sp0WWgC0A8mW-33">
          <mxGeometry x="-1" relative="1" as="geometry">
            <mxPoint x="770" y="70" as="targetPoint" />
            <Array as="points">
              <mxPoint x="660" y="70" />
              <mxPoint x="660" y="480" />
            </Array>
          </mxGeometry>
        </mxCell>
        <mxCell id="0O2sNTZ3Sp0WWgC0A8mW-33" value="Connexion" style="whiteSpace=wrap;html=1;arcSize=40;fontColor=#E4FDE1;fillColor=#F45B69;strokeColor=#028090;rounded=1;" vertex="1" parent="1">
          <mxGeometry x="290" y="460" width="120" height="40" as="geometry" />
        </mxCell>
        <mxCell id="0O2sNTZ3Sp0WWgC0A8mW-34" value="" style="edgeStyle=orthogonalEdgeStyle;html=1;verticalAlign=bottom;endArrow=open;endSize=8;strokeColor=#028090;labelBackgroundColor=#114B5F;fontColor=#E4FDE1;curved=1;" edge="1" source="0O2sNTZ3Sp0WWgC0A8mW-33" parent="1">
          <mxGeometry relative="1" as="geometry">
            <mxPoint x="350" y="550" as="targetPoint" />
          </mxGeometry>
        </mxCell>
        <mxCell id="0O2sNTZ3Sp0WWgC0A8mW-35" value="contrôle des champs" style="whiteSpace=wrap;html=1;arcSize=40;fontColor=#E4FDE1;fillColor=#F45B69;strokeColor=#028090;rounded=1;" vertex="1" parent="1">
          <mxGeometry x="290" y="850" width="120" height="40" as="geometry" />
        </mxCell>
        <mxCell id="0O2sNTZ3Sp0WWgC0A8mW-36" value="" style="edgeStyle=orthogonalEdgeStyle;html=1;verticalAlign=bottom;endArrow=open;endSize=8;strokeColor=#028090;labelBackgroundColor=#114B5F;fontColor=#E4FDE1;curved=1;" edge="1" source="0O2sNTZ3Sp0WWgC0A8mW-35" parent="1">
          <mxGeometry relative="1" as="geometry">
            <mxPoint x="350" y="950" as="targetPoint" />
          </mxGeometry>
        </mxCell>
        <mxCell id="0O2sNTZ3Sp0WWgC0A8mW-37" value="valide?" style="rhombus;whiteSpace=wrap;html=1;fillColor=#F45B69;strokeColor=#028090;fontColor=#E4FDE1;rounded=1;" vertex="1" parent="1">
          <mxGeometry x="310" y="950" width="80" height="40" as="geometry" />
        </mxCell>
        <mxCell id="0O2sNTZ3Sp0WWgC0A8mW-38" value="no" style="edgeStyle=orthogonalEdgeStyle;html=1;align=left;verticalAlign=bottom;endArrow=open;endSize=8;strokeColor=#028090;labelBackgroundColor=#114B5F;fontColor=#E4FDE1;curved=1;" edge="1" source="0O2sNTZ3Sp0WWgC0A8mW-37" parent="1">
          <mxGeometry x="-1" relative="1" as="geometry">
            <mxPoint x="490" y="970" as="targetPoint" />
          </mxGeometry>
        </mxCell>
        <mxCell id="0O2sNTZ3Sp0WWgC0A8mW-39" value="yes" style="edgeStyle=orthogonalEdgeStyle;html=1;align=left;verticalAlign=top;endArrow=open;endSize=8;strokeColor=#028090;labelBackgroundColor=#114B5F;fontColor=#E4FDE1;curved=1;" edge="1" source="0O2sNTZ3Sp0WWgC0A8mW-37" parent="1">
          <mxGeometry x="-1" relative="1" as="geometry">
            <mxPoint x="350" y="1050" as="targetPoint" />
          </mxGeometry>
        </mxCell>
        <mxCell id="0O2sNTZ3Sp0WWgC0A8mW-40" value="validation de la fiche" style="whiteSpace=wrap;html=1;arcSize=40;fontColor=#E4FDE1;fillColor=#F45B69;strokeColor=#028090;rounded=1;" vertex="1" parent="1">
          <mxGeometry x="290" y="1050" width="120" height="40" as="geometry" />
        </mxCell>
        <mxCell id="0O2sNTZ3Sp0WWgC0A8mW-41" value="" style="edgeStyle=orthogonalEdgeStyle;html=1;verticalAlign=bottom;endArrow=open;endSize=8;strokeColor=#028090;labelBackgroundColor=#114B5F;fontColor=#E4FDE1;curved=1;" edge="1" source="0O2sNTZ3Sp0WWgC0A8mW-40" parent="1">
          <mxGeometry relative="1" as="geometry">
            <mxPoint x="350" y="1150" as="targetPoint" />
          </mxGeometry>
        </mxCell>
        <mxCell id="0O2sNTZ3Sp0WWgC0A8mW-42" value="affiche Erreur" style="whiteSpace=wrap;html=1;arcSize=40;fontColor=#E4FDE1;fillColor=#F45B69;strokeColor=#028090;rounded=1;" vertex="1" parent="1">
          <mxGeometry x="490" y="950" width="120" height="40" as="geometry" />
        </mxCell>
        <mxCell id="0O2sNTZ3Sp0WWgC0A8mW-43" value="" style="edgeStyle=orthogonalEdgeStyle;html=1;verticalAlign=bottom;endArrow=open;endSize=8;strokeColor=#028090;entryX=1;entryY=0.5;entryDx=0;entryDy=0;labelBackgroundColor=#114B5F;fontColor=#E4FDE1;curved=1;" edge="1" source="0O2sNTZ3Sp0WWgC0A8mW-42" parent="1" target="0O2sNTZ3Sp0WWgC0A8mW-35">
          <mxGeometry relative="1" as="geometry">
            <mxPoint x="550" y="1050" as="targetPoint" />
            <Array as="points">
              <mxPoint x="550" y="870" />
            </Array>
          </mxGeometry>
        </mxCell>
        <mxCell id="0O2sNTZ3Sp0WWgC0A8mW-44" value="" style="ellipse;html=1;shape=endState;fillColor=#F45B69;strokeColor=#028090;fontColor=#E4FDE1;rounded=1;" vertex="1" parent="1">
          <mxGeometry x="335" y="1150" width="30" height="30" as="geometry" />
        </mxCell>
      </root>
    </mxGraphModel>
  </diagram>
</mxfile>
